<svg width="1101" height="732" viewBox="0 0 1101 732" fill="none" xmlns="http://www.w3.org/2000/svg">
<g clip-path="url(#clip0)">
<path opacity="0.1" d="M641.24 145.99C576.52 143.69 514.88 122.8 456.06 99.99C397.24 77.18 338.9 51.8 275.73 39.69C235.1 31.9 188.63 30.8 155.9 52.58C124.39 73.58 114.21 109.73 108.74 143.31C104.62 168.57 102.2 195.15 113.48 218.8C121.32 235.22 135.22 249.02 144.84 264.75C178.31 319.47 154.65 386.95 118.39 440.38C101.39 465.45 81.6399 489.38 68.5099 516.04C55.3799 542.7 49.3099 573.29 60.7999 600.51C72.1799 627.51 99.3099 647.75 128.7 662C188.39 690.94 258.7 699.23 327.31 703.92C479.14 714.31 631.77 709.81 784 705.31C840.34 703.64 896.92 701.95 952.34 693.24C983.12 688.4 1014.89 680.72 1037.24 662.19C1065.6 638.66 1072.63 598.81 1053.62 569.31C1021.74 519.82 933.62 507.53 911.31 454.41C899.05 425.18 911.64 392.61 929.47 365.5C967.71 307.34 1031.8 256.31 1035.17 189.82C1037.49 144.16 1006.68 98.43 959.04 76.82C909.11 54.17 839.86 57.02 803.04 94.51C765.06 133.07 698.39 147.92 641.24 145.99Z" fill="#313541"/>
<path d="M171.26 731.98C211.693 731.98 244.47 725.676 244.47 717.9C244.47 710.124 211.693 703.82 171.26 703.82C130.827 703.82 98.05 710.124 98.05 717.9C98.05 725.676 130.827 731.98 171.26 731.98Z" fill="#313541"/>
<path d="M170.03 723.08C174.735 723.08 178.55 718.083 178.55 711.92C178.55 705.756 174.735 700.76 170.03 700.76C165.325 700.76 161.51 705.756 161.51 711.92C161.51 718.083 165.325 723.08 170.03 723.08Z" fill="#3F3D56"/>
<path d="M170.03 709.44C174.735 709.44 178.55 704.444 178.55 698.28C178.55 692.117 174.735 687.12 170.03 687.12C165.325 687.12 161.51 692.117 161.51 698.28C161.51 704.444 165.325 709.44 170.03 709.44Z" fill="#3F3D56"/>
<path d="M170.03 695.8C174.735 695.8 178.55 690.804 178.55 684.64C178.55 678.477 174.735 673.48 170.03 673.48C165.325 673.48 161.51 678.477 161.51 684.64C161.51 690.804 165.325 695.8 170.03 695.8Z" fill="#3F3D56"/>
<path d="M170.03 682.17C174.735 682.17 178.55 677.174 178.55 671.01C178.55 664.847 174.735 659.85 170.03 659.85C165.325 659.85 161.51 664.847 161.51 671.01C161.51 677.174 165.325 682.17 170.03 682.17Z" fill="#3F3D56"/>
<path d="M170.03 668.53C174.735 668.53 178.55 663.533 178.55 657.37C178.55 651.206 174.735 646.21 170.03 646.21C165.325 646.21 161.51 651.206 161.51 657.37C161.51 663.533 165.325 668.53 170.03 668.53Z" fill="#3F3D56"/>
<path d="M170.03 654.89C174.735 654.89 178.55 649.893 178.55 643.73C178.55 637.566 174.735 632.57 170.03 632.57C165.325 632.57 161.51 637.566 161.51 643.73C161.51 649.893 165.325 654.89 170.03 654.89Z" fill="#3F3D56"/>
<path d="M170.03 641.25C174.735 641.25 178.55 636.254 178.55 630.09C178.55 623.927 174.735 618.93 170.03 618.93C165.325 618.93 161.51 623.927 161.51 630.09C161.51 636.254 165.325 641.25 170.03 641.25Z" fill="#3F3D56"/>
<path d="M201.94 536.76C203.108 535.279 204.17 533.719 205.12 532.09L182.72 528.41L206.94 528.59C209.265 523.535 210.534 518.058 210.668 512.495C210.802 506.933 209.799 501.401 207.72 496.24L175.23 513.1L205.23 491.1C202.42 486.253 198.642 482.037 194.132 478.713C189.622 475.389 184.477 473.029 179.015 471.779C173.554 470.53 167.894 470.417 162.387 471.449C156.881 472.481 151.645 474.635 147.007 477.778C142.369 480.92 138.427 484.983 135.427 489.715C132.426 494.446 130.432 499.744 129.567 505.28C128.703 510.815 128.987 516.469 130.401 521.89C131.816 527.311 134.331 532.383 137.79 536.79C135.976 539.1 134.413 541.598 133.13 544.24L162.21 559.34L131.21 548.94C129.029 555.373 128.489 562.249 129.638 568.944C130.787 575.64 133.589 581.942 137.79 587.28C133.052 593.302 130.105 600.537 129.285 608.155C128.464 615.774 129.805 623.47 133.152 630.362C136.5 637.255 141.719 643.067 148.214 647.133C154.709 651.199 162.217 653.355 169.88 653.355C177.543 653.355 185.051 651.199 191.546 647.133C198.041 643.067 203.26 637.255 206.608 630.362C209.955 623.47 211.296 615.774 210.475 608.155C209.655 600.537 206.708 593.302 201.97 587.28C207.632 580.083 210.71 571.192 210.71 562.035C210.71 552.878 207.632 543.987 201.97 536.79L201.94 536.76Z" fill="#313541"/>
<path opacity="0.1" d="M129.06 561.99C129.048 571.147 132.127 580.041 137.8 587.23C133.062 593.252 130.115 600.487 129.294 608.105C128.474 615.724 129.815 623.42 133.162 630.312C136.51 637.205 141.729 643.017 148.224 647.083C154.719 651.149 162.227 653.305 169.89 653.305C177.553 653.305 185.061 651.149 191.556 647.083C198.051 643.017 203.27 637.205 206.618 630.312C209.965 623.42 211.306 615.724 210.485 608.105C209.665 600.487 206.718 593.252 201.98 587.23C207.42 580.3 129.06 557.42 129.06 561.99Z" fill="black"/>
<path d="M525.95 547.99C526.57 555.99 529.65 564.27 536.13 568.99C542.61 573.71 552.92 573.62 557.87 567.28C559.532 564.9 560.755 562.241 561.48 559.43C565.65 546.25 568.61 531.83 564.04 518.78C553.73 518.11 541.78 513.26 534.04 521.78C527.79 528.72 525.23 538.74 525.95 547.99Z" fill="#3F3D56"/>
<path d="M573.81 467.36C572.44 478.99 570.11 490.57 570.35 502.28C570.44 506.8 570.92 511.28 570.93 515.82C570.947 527.608 567.842 539.191 561.93 549.39C561.307 550.589 560.474 551.666 559.47 552.57C557.1 554.49 553.53 554.33 550.87 552.86C548.271 551.243 546.16 548.952 544.76 546.23C537.31 533.47 537.1 517.96 534.15 503.49C531.89 492.42 527.93 481.69 526.5 470.49C525.57 463.28 525.71 455.93 524.23 448.81C523.78 446.66 522.52 443.43 521.69 440.26C520.93 437.43 520.51 434.65 521.29 432.74C522.88 428.83 528.09 430.35 531.48 430.59C543.418 431.475 555.407 431.445 567.34 430.5C568.52 430.41 569.86 430.36 570.69 431.2C571.052 431.624 571.324 432.117 571.49 432.65C572.44 435.25 573.166 437.926 573.66 440.65C575.31 449.36 574.85 458.49 573.81 467.36Z" fill="#FABDBD"/>
<g opacity="0.1">
<path opacity="0.1" d="M569.21 430.5C568.595 430.435 567.975 430.435 567.36 430.5C561.64 430.96 555.91 431.19 550.19 431.22C556.53 431.233 562.87 430.993 569.21 430.5Z" fill="black"/>
<path opacity="0.1" d="M552.89 552.86C550.291 551.243 548.18 548.952 546.78 546.23C539.33 533.47 539.12 517.96 536.17 503.49C533.91 492.42 529.95 481.69 528.52 470.49C527.59 463.28 527.73 455.93 526.25 448.81C525.8 446.66 524.54 443.43 523.71 440.26C522.95 437.43 522.53 434.65 523.31 432.74C523.641 431.957 524.199 431.291 524.912 430.828C525.625 430.364 526.46 430.125 527.31 430.14C524.78 429.97 522.31 430.27 521.31 432.74C520.53 434.65 520.95 437.43 521.71 440.26C522.54 443.43 523.8 446.66 524.25 448.81C525.73 455.93 525.59 463.28 526.52 470.49C527.95 481.7 531.91 492.43 534.17 503.49C537.12 517.96 537.33 533.49 544.78 546.23C546.18 548.952 548.291 551.243 550.89 552.86C552.486 553.743 554.316 554.113 556.13 553.92C554.994 553.771 553.895 553.412 552.89 552.86V552.86Z" fill="black"/>
</g>
<path d="M611.62 528.69C605.62 540.69 606.62 557.69 606.62 557.69C607.62 597.69 591.62 681.69 591.62 681.69H577.62C577.62 681.69 575.62 588.69 577.62 580.69C579.62 572.69 576.62 544.69 573.62 505.69C571.39 476.69 577.46 450.41 580.72 438.88C581.84 434.88 582.62 432.69 582.62 432.69C582.62 432.69 605.62 398.69 618.62 414.69C621.62 418.41 623.21 425.92 623.76 435.4C625.54 466.68 616.22 519.48 611.62 528.69Z" fill="#FABDBD"/>
<path opacity="0.1" d="M623.76 435.4C623.21 425.92 621.64 418.4 618.62 414.69C615.72 411.13 612.32 410.05 608.8 410.52C611.528 410.973 613.974 412.468 615.62 414.69C618.62 418.41 620.21 425.92 620.76 435.4C622.54 466.68 613.22 519.48 608.62 528.69C602.62 540.69 603.62 557.69 603.62 557.69C604.62 597.69 588.62 681.69 588.62 681.69H591.62C591.62 681.69 607.62 597.69 606.62 557.69C606.62 557.69 605.62 540.69 611.62 528.69C616.22 519.48 625.54 466.68 623.76 435.4Z" fill="black"/>
<path d="M570.34 678.04C569.223 678.917 568.256 679.971 567.48 681.16C565.69 684.54 568.23 688.58 570.95 691.27C573.67 693.96 576.95 696.84 576.95 700.67C576.95 703.75 574.62 706.39 572.01 708.03C570.61 708.91 568.85 710.03 569.14 711.69C569.242 712.11 569.421 712.507 569.67 712.86C571.91 716.29 575.88 718.3 579.9 719.06C583.92 719.82 588.07 719.49 592.16 719.16C592.773 719.182 593.371 718.975 593.84 718.58C594.136 718.181 594.294 717.697 594.29 717.2C594.49 715.08 594.36 712.84 595.29 710.93C596.59 708.32 599.58 706.99 601.29 704.65C603.69 701.45 603.36 697 602.45 693.11C600.45 684.64 596 674.98 589.32 669.11C581.58 662.37 575.51 673.17 570.34 678.04Z" fill="#3F3D56"/>
<path d="M600.64 173.99C606.22 165.65 604.77 153.99 599.07 145.69C593.37 137.39 584.21 132.17 574.76 128.8C562.02 124.26 547.97 122.71 534.88 126.12C524.46 128.83 515.1 134.5 505.28 138.88C487.907 146.631 469.017 150.39 450 149.88C428.89 149.29 405.76 143.88 388.05 155.42C355.63 176.51 370.05 233.91 339.38 257.42C331.11 263.76 320.7 266.53 311.5 271.42C302.3 276.31 293.58 284.82 293.8 295.24C293.9 300.24 296.1 305.01 298.8 309.24C310.3 327.47 331.8 338.75 353.33 338.54C374.86 338.33 395.87 326.88 408.28 309.26C411.39 304.85 414.13 299.94 418.64 297C427.64 291.1 439.5 295.23 450.24 296.11C474.15 298.06 498.07 280.11 502.83 256.56C504.83 246.51 504.48 234.5 512.57 228.19C519.1 223.1 528.29 224.19 536.57 223.32C551.71 221.75 563.66 212.32 571.88 200C575.65 194.35 576.09 187.6 581.23 183.15C586.77 178.26 595.34 181.87 600.64 173.99Z" fill="#3F3D56"/>
<g opacity="0.1">
<path opacity="0.1" d="M430 151.81C438.769 152.051 447.539 151.38 456.17 149.81C453.79 149.88 451.39 149.88 449 149.81C432.43 149.35 414.62 145.93 399.16 150.05C409.36 150.15 419.91 151.53 430 151.81Z" fill="black"/>
<path opacity="0.1" d="M398.62 298.99C394.11 301.93 391.37 306.84 388.26 311.25C378.701 324.668 364.73 334.299 348.79 338.46C349.96 338.51 351.13 338.54 352.31 338.53C373.86 338.32 394.85 326.87 407.26 309.25C410.37 304.84 413.11 299.93 417.62 296.99L418.4 296.51C411.34 295.54 404.41 295.2 398.62 298.99Z" fill="black"/>
<path opacity="0.1" d="M598.06 145.66C592.37 137.4 583.2 132.14 573.75 128.77C561.01 124.23 546.96 122.68 533.87 126.09C533.57 126.16 533.28 126.25 532.99 126.33C540.421 126.744 547.751 128.24 554.75 130.77C564.2 134.14 573.37 139.4 579.06 147.66C584.75 155.92 586.21 167.66 580.63 175.96C575.33 183.87 566.76 180.26 561.15 185.13C556.01 189.58 555.57 196.33 551.8 201.98C544.73 212.55 534.89 220.98 522.64 224.18C526.85 223.68 531.29 223.74 535.49 223.3C550.63 221.73 562.58 212.3 570.8 199.98C574.57 194.33 575.01 187.58 580.15 183.13C585.76 178.26 594.33 181.87 599.63 173.96C605.22 165.62 603.77 153.92 598.06 145.66Z" fill="black"/>
<path opacity="0.1" d="M516.5 225.3C508.27 226.16 499.08 225.08 492.5 230.17C484.41 236.48 484.8 248.49 482.76 258.54C479.25 276.11 464.99 290.6 448.06 295.99L449.25 296.1C473.16 298.05 497.08 280.1 501.84 256.55C503.84 246.5 503.49 234.49 511.58 228.18C513.438 226.79 515.547 225.772 517.79 225.18C517.34 225.19 516.93 225.26 516.5 225.3Z" fill="black"/>
</g>
<path d="M758.12 138.19C758.12 138.19 734.12 186.19 726.12 204.19C718.12 222.19 645.12 249.19 635.12 250.19C632.438 250.558 629.939 251.761 627.98 253.63C622.33 258.63 619.12 267.19 619.12 267.19C619.12 267.19 623.12 294.19 618.12 339.19C618.02 340.06 617.93 340.93 617.85 341.77C613.49 384.59 622.62 394.69 622.62 394.69C622.62 394.69 525.62 431.69 528.62 383.69C529.56 368.58 529.42 357.54 528.49 348.31C527.472 338.861 525.55 329.532 522.75 320.45C520.38 312.16 517.55 303.07 514.62 290.69C513.21 284.513 511.351 278.447 509.06 272.54C508.99 272.36 508.92 272.18 508.86 272.01C503.86 259.6 498.86 255.59 496 254.29C493.3 253.115 490.726 251.668 488.32 249.97C479.08 243.3 459.25 228.35 441.59 210.69C417.59 186.69 393.59 129.69 393.59 129.69C393.59 129.69 386.59 96.69 402.59 69.69C418.59 42.69 411.59 122.69 411.59 122.69C411.59 122.69 440.59 161.69 447.59 179.69C451.19 188.95 456.91 193.69 461.59 196.15C469.322 200.175 476.725 204.803 483.73 209.99C488.464 213.568 493.439 216.816 498.62 219.71C509.8 225.71 523.19 232.48 534.35 234.26C536.092 234.548 537.854 234.698 539.62 234.71C540.458 234.737 541.29 234.57 542.053 234.223C542.816 233.877 543.489 233.359 544.02 232.71C547.02 229.18 546.95 221.58 546.26 215.33C545.891 212.092 545.344 208.877 544.62 205.7C544.62 205.7 577.12 185.2 576.12 210.2C575.965 212.963 576.221 215.733 576.88 218.42C577.412 220.887 578.589 223.168 580.292 225.03C581.994 226.892 584.161 228.269 586.57 229.02C590.472 230.165 594.602 230.299 598.57 229.41C599.807 229.199 601.002 228.79 602.11 228.2C605.11 226.2 635.11 217.2 644.11 216.2C653.11 215.2 698.11 193.2 698.11 193.2L747.11 125.2C747.11 125.2 746.11 85.2 766.11 69.2C786.11 53.2 758.12 138.19 758.12 138.19Z" fill="#FABDBD"/>
<g opacity="0.1">
<path opacity="0.1" d="M617.85 335.77C616.976 343.806 616.592 351.887 616.7 359.97C616.8 354.69 617.15 348.66 617.85 341.77C617.93 340.93 618.02 340.06 618.12 339.19C619.869 323.79 620.704 308.299 620.62 292.8C620.466 306.297 619.631 319.777 618.12 333.19C618.06 334.06 617.93 334.93 617.85 335.77Z" fill="black"/>
<path opacity="0.1" d="M545.66 205.06C544.99 205.45 544.66 205.69 544.66 205.69C545.632 209.968 546.274 214.314 546.58 218.69C546.782 214.127 546.473 209.555 545.66 205.06V205.06Z" fill="black"/>
<path opacity="0.1" d="M412.06 117.26C412.55 110.26 413.28 97.71 413.14 86.55C412.97 101.47 411.64 116.69 411.64 116.69L412.06 117.26Z" fill="black"/>
<path opacity="0.1" d="M528.69 382.52C528.69 382.91 528.69 383.3 528.62 383.69C525.62 431.69 622.62 394.69 622.62 394.69C621.486 393.158 620.629 391.438 620.09 389.61C605.48 394.81 532.06 418.99 528.69 382.52Z" fill="black"/>
<path opacity="0.1" d="M758.12 132.19C758.12 132.19 734.12 180.19 726.12 198.19C718.12 216.19 645.12 243.19 635.12 244.19C632.438 244.558 629.939 245.761 627.98 247.63C622.33 252.63 619.12 261.19 619.12 261.19C619.12 261.19 619.36 262.82 619.65 265.92C620.77 263.35 623.65 257.45 627.98 253.63C629.939 251.761 632.438 250.558 635.12 250.19C645.12 249.19 718.12 222.19 726.12 204.19C734.12 186.19 758.12 138.19 758.12 138.19C758.12 138.19 775.03 86.84 773.17 71.48C771.63 91.16 758.12 132.19 758.12 132.19Z" fill="black"/>
<path opacity="0.1" d="M528.49 342.31C527.472 332.861 525.55 323.532 522.75 314.45C520.38 306.16 517.55 297.07 514.62 284.69C513.21 278.513 511.351 272.447 509.06 266.54C508.99 266.36 508.92 266.18 508.86 266.01C503.86 253.6 498.86 249.59 496 248.29C493.3 247.115 490.726 245.668 488.32 243.97C479.08 237.3 459.25 222.35 441.59 204.69C417.59 180.69 393.59 123.69 393.59 123.69C392.703 118.878 392.208 114.002 392.11 109.11C391.866 116.003 392.362 122.903 393.59 129.69C393.59 129.69 417.59 186.69 441.59 210.69C459.25 228.35 479.08 243.3 488.32 249.97C490.745 251.671 493.339 253.119 496.06 254.29C498.91 255.59 503.9 259.6 508.92 272.01C508.98 272.18 509.05 272.36 509.12 272.54C511.401 278.448 513.249 284.514 514.65 290.69C517.58 303.07 520.41 312.16 522.78 320.45C525.58 329.532 527.502 338.861 528.52 348.31C528.94 352.49 529.19 357.04 529.26 362.16C529.381 355.534 529.124 348.907 528.49 342.31Z" fill="black"/>
</g>
<path d="M627.53 298.87C626.003 301.394 624.666 304.028 623.53 306.75C622.02 310.95 622.01 315.52 621.73 319.97C621.331 326.215 620.381 332.412 618.89 338.49C618.649 339.609 618.314 340.707 617.89 341.77C617.591 342.486 617.198 343.159 616.72 343.77C616.187 344.422 615.56 344.992 614.86 345.46C613.787 346.176 612.652 346.795 611.47 347.31C597.55 353.81 582.37 359.55 567.18 357.31C560.758 356.187 554.544 354.097 548.75 351.11C543.25 348.44 537.03 345.27 531.33 347.49C530.455 347.934 529.512 348.228 528.54 348.36C528.352 348.363 528.164 348.346 527.98 348.31C526.1 347.95 526.1 341.61 525.67 339.74C524.03 332.56 523.78 326.74 522.8 320.5C522.279 317.049 521.473 313.648 520.39 310.33C516.39 298.23 515.18 285.33 515.18 272.65C515.18 272.02 510.68 272.65 509.18 272.59C508.8 272.59 508.59 272.53 508.68 272.4C508.767 272.276 508.867 272.162 508.98 272.06C509.504 271.635 510.115 271.331 510.77 271.17L511.95 270.82C518.13 269.07 524.95 268.34 529.57 263.99C534.37 259.5 535.57 252.33 535.36 245.77C535.3 243.66 534.27 238.54 534.44 234.29C536.182 234.578 537.944 234.728 539.71 234.74C540.548 234.767 541.38 234.6 542.143 234.253C542.906 233.907 543.579 233.389 544.11 232.74C545.778 235.97 547.222 239.311 548.43 242.74C550.13 246.92 551.43 251.32 553.92 255.1C557.92 261.26 565.3 265.31 572.64 264.69C579.98 264.07 586.81 258.43 588.12 251.19C589.27 244.84 586.6 235.7 586.66 229.1C590.562 230.245 594.692 230.379 598.66 229.49C598.829 229.898 598.972 230.315 599.09 230.74C601.34 238.46 604.34 247.32 611.89 250.06C616.77 251.82 622.54 250.5 627.05 253.06C627.397 253.259 627.731 253.48 628.05 253.72C629.091 254.494 629.988 255.445 630.7 256.53C632.553 259.589 633.653 263.043 633.91 266.61C635.065 277.76 632.842 288.999 627.53 298.87V298.87Z" fill="#313541"/>
<path opacity="0.1" d="M576.88 218.41C571.891 220.333 566.521 221.055 561.201 220.518C555.882 219.981 550.764 218.201 546.26 215.32C545.891 212.082 545.344 208.867 544.62 205.69C544.62 205.69 577.12 185.19 576.12 210.19C575.965 212.953 576.221 215.723 576.88 218.41V218.41Z" fill="black"/>
<path d="M564.61 218.69C583.388 218.69 598.61 203.468 598.61 184.69C598.61 165.912 583.388 150.69 564.61 150.69C545.832 150.69 530.61 165.912 530.61 184.69C530.61 203.468 545.832 218.69 564.61 218.69Z" fill="#FABDBD"/>
<path d="M505.12 269.19C505.12 269.19 571.12 227.19 776.12 272.19C981.12 317.19 1100.12 281.19 1100.12 281.19V328.19C1100.12 328.19 870.12 353.19 782.12 328.19C694.12 303.19 568.85 288.77 524.98 327.48L505.12 269.19Z" fill="#E8E8E8"/>
<path opacity="0.1" d="M505.12 269.19C505.12 269.19 571.12 227.19 776.12 272.19C981.12 317.19 1100.12 281.19 1100.12 281.19V328.19C1100.12 328.19 870.12 353.19 782.12 328.19C694.12 303.19 568.85 288.77 524.98 327.48L505.12 269.19Z" fill="black"/>
<path d="M507.12 271.19C507.12 271.19 571.12 229.19 776.12 274.19C981.12 319.19 1098.12 283.19 1098.12 283.19L1099.12 326.19C1099.12 326.19 871.12 351.19 783.12 326.19C695.12 301.19 570.85 283.77 526.98 322.48L507.12 271.19Z" fill="#313541"/>
<path d="M483.06 335.79C483.06 335.79 417.06 377.79 212.06 332.79C7.05997 287.79 17.06 323.79 17.06 323.79V276.79C17.06 276.79 118.06 251.79 206.06 276.79C294.06 301.79 419.33 316.21 463.2 277.5L483.06 335.79Z" fill="#E8E8E8"/>
<path d="M481.06 333.79C481.06 333.79 417.06 375.79 212.06 330.79C7.06006 285.79 19.0601 321.79 19.0601 321.79L18.0601 278.79C18.0601 278.79 117.06 253.79 205.06 278.79C293.06 303.79 417.33 321.21 461.2 282.5L481.06 333.79Z" fill="#313541"/>
<path d="M535.37 190.32C534.37 184.08 532.83 176.22 538.05 172.65C539.912 171.521 542.064 170.965 544.24 171.05C555.05 170.94 565.38 178.47 575.98 176.27C579.353 175.563 582.451 173.897 584.9 171.471C587.349 169.046 589.045 165.965 589.784 162.598C590.524 159.232 590.275 155.723 589.068 152.495C587.861 149.267 585.747 146.456 582.98 144.4C578.81 141.3 573.54 140.18 568.44 139.13C555.03 136.37 541.03 133.62 527.79 137.13C514.55 140.64 502.45 152.51 503.51 166.13C504.01 172.65 507.33 178.57 510.8 184.13C513.44 188.35 523.72 208.13 528.71 208.43C535.75 208.84 536.06 194.4 535.37 190.32Z" fill="#3F3D56"/>
<path d="M619.62 377.69C619.62 377.69 550.62 394.69 527.62 377.69C527.62 377.69 517.62 416.69 520.62 436.69C520.62 436.69 569.62 439.69 574.62 442.69C574.62 442.69 575.62 434.69 580.62 438.69C580.62 438.69 597.62 418.69 628.62 436.69C628.62 436.69 634.62 389.69 619.62 377.69Z" fill="#313541"/>
<path opacity="0.1" d="M583 144.4C582.288 143.884 581.544 143.417 580.77 143C582.834 145.346 584.245 148.192 584.864 151.255C585.483 154.317 585.287 157.488 584.296 160.451C583.304 163.414 581.553 166.065 579.216 168.139C576.88 170.213 574.04 171.638 570.98 172.27C560.38 174.47 550.05 166.94 539.24 167.05C537.064 166.965 534.912 167.521 533.05 168.65C527.83 172.22 529.36 180.08 530.36 186.32C531.02 190.4 530.75 204.84 523.73 204.45H523.61C525.54 206.8 527.34 208.39 528.73 208.45C535.73 208.84 536.02 194.45 535.36 190.32C534.36 184.08 532.83 176.22 538.05 172.65C539.912 171.521 542.064 170.965 544.24 171.05C555.05 170.94 565.38 178.47 575.98 176.27C579.353 175.563 582.451 173.897 584.9 171.471C587.349 169.046 589.045 165.965 589.784 162.598C590.524 159.232 590.275 155.723 589.068 152.495C587.861 149.267 585.747 146.456 582.98 144.4H583Z" fill="black"/>
<g opacity="0.1">
<path opacity="0.1" d="M86.3601 96.9C86.3601 96.9 11.5901 65.46 1.7901 122.16C1.7901 122.16 -3.3199 130.99 3.7901 138.29C3.7901 138.29 5.3201 134.38 12.5501 138.43C15.1311 139.849 17.8698 140.96 20.7101 141.74C24.5482 142.799 28.6264 142.581 32.3301 141.12C32.3301 141.12 56.9201 139.79 77.6001 107.62C77.6001 107.62 86.4601 102.14 86.9101 100.09L72.0901 101.09C72.0901 101.09 73.2201 111.94 67.0901 118.45C67.0901 118.45 72.5401 101.62 69.9201 101.14C69.3901 101.04 62.0901 102.01 62.0901 102.01C62.0901 102.01 63.9801 120.87 54.0901 130.63C54.0901 130.63 63.2701 111.44 59.2701 102.35L48.3401 104.46C48.3401 104.46 51.3401 124.3 40.5201 135.85C40.5201 135.85 49.4101 115.45 45.9801 105.08L35.5001 108.6C35.5001 108.6 38.0301 128.02 28.9801 137.6C28.9801 137.6 36.8801 112.99 33.1601 109.6C33.1601 109.6 23.7401 113.42 21.7201 115.6C21.7201 115.6 23.2201 129.6 17.4601 134.6C17.4601 134.6 21.0001 117.6 19.2501 116.9C19.2501 116.9 8.3001 125.14 4.9701 132.25C4.9701 132.25 9.13009 121.39 17.8701 115.25C17.8701 115.25 10.5301 114.01 4.8701 117.08C4.8701 117.08 8.6601 109.87 20.5201 113.29C20.5201 113.29 29.3101 107.21 31.0701 107.29C31.0701 107.29 19.8501 102.29 11.7401 102.9C11.7401 102.9 20.4301 97.9 33.8201 106.26L44.2601 102.48C44.2601 102.48 29.7701 95.05 22.5001 95.08C22.5001 95.08 32.1601 91.35 46.9801 101.75L57.6701 99.56C57.6701 99.56 45.6701 92.21 37.5801 90.5C37.5801 90.5 47.2901 88.97 60.7601 99.06L68.0801 98.44C68.0801 98.44 59.2201 93.23 56.5401 91.96C53.8601 90.69 53.9801 89.86 53.9801 89.86C60.3588 90.9675 66.3037 93.8274 71.1501 98.12C71.1501 98.12 86.2901 97.83 86.3601 96.9Z" fill="#313541"/>
</g>
<g opacity="0.1">
<path opacity="0.1" d="M83.5999 40.54C83.5999 40.54 57.0599 -20.73 18.9699 7.37C18.9699 7.37 10.8999 9.71001 10.9699 18.07C10.9699 18.07 14.1099 16.62 16.0899 23.14C16.8302 25.4554 17.837 27.6769 19.0899 29.76C20.7471 32.5618 23.2708 34.7485 26.2799 35.99V35.99C26.2799 35.99 41.6399 49.21 72.2799 41.88C72.2799 41.88 80.6699 43.68 82.1099 42.71L72.7399 34.85C72.7399 34.85 67.2399 41.94 59.8599 42.29C59.8599 42.29 72.6899 35.39 71.3999 33.61C71.1399 33.25 66.2599 29.67 66.2599 29.67C66.2599 29.67 56.6299 41.95 45.2599 42.14C45.2599 42.14 61.6499 35.96 64.4499 28.29L56.7599 23.29C56.7599 23.29 47.2199 36.78 34.2299 37.48C34.2299 37.48 51.1299 30.48 54.9999 22.32L46.7699 18.44C46.7699 18.44 37.2099 31.44 26.3999 31.93C26.3999 31.93 45.1099 21.81 44.8199 17.68C44.8199 17.68 37.0499 14.58 34.5899 14.76C34.5899 14.76 27.5199 23.91 21.2099 23.65C21.2099 23.65 32.9999 15.56 32.3499 14.15C32.3499 14.15 21.1499 12.81 15.1199 15.15C15.1199 15.15 23.7799 11.07 32.4699 12.41C32.4699 12.41 28.8199 7.48001 23.7299 6.11001C23.7299 6.11001 30.0899 3.98 35.1899 12.77C35.1899 12.77 43.8699 14.16 44.8799 15.2C44.8799 15.2 41.0799 5.81 35.8799 1.58C35.8799 1.58 43.8799 3.58001 47.0799 16.15L55.4299 19.86C55.4299 19.86 51.0599 7.19 46.6699 3.08C46.6699 3.08 54.5399 6.36 57.4199 20.98L65.0099 25.77C65.0099 25.77 62.0599 14.57 58.2399 8.99C58.2399 8.99 64.8799 13.6 67.1399 27.27L71.8399 31.07C71.8399 31.07 69.5399 22.93 68.6699 20.65C67.7999 18.37 68.3499 17.95 68.3499 17.95C71.5031 22.2448 73.4035 27.3299 73.8399 32.64C73.8399 32.64 83.0599 41.06 83.5999 40.54Z" fill="#313541"/>
</g>
</g>
<defs>
<clipPath id="clip0">
<rect width="1100.11" height="731.98" fill="white"/>
</clipPath>
</defs>
</svg>
